<svg width="841" height="275" viewBox="0 0 841 275" fill="none" xmlns="http://www.w3.org/2000/svg">
<path d="M332.851 132.192C344.45 132.192 353.761 134.943 360.786 140.284C366.013 144.412 369.036 148.539 369.852 152.585C370.751 157.279 369.199 160.436 365.278 162.216C363.89 162.863 362.746 162.54 361.766 161.164C360.296 159.545 359.07 158.008 358.09 156.551C354.741 152.505 350.249 149.51 344.695 147.568C341.509 146.597 337.588 146.111 332.851 146.111C326.153 146.111 320.68 147.568 316.596 150.4C311.777 153.718 309.408 158.493 309.408 164.644C309.408 168.367 310.96 171.604 314.146 174.274C318.066 177.673 324.764 180.587 334.158 182.934C343.796 185.361 350.902 187.627 355.313 189.57C357.028 190.379 358.662 191.188 360.132 191.998C369.934 197.663 374.835 205.755 374.835 216.357C374.835 226.149 371.241 233.838 364.135 239.422C357.028 245.087 347.145 247.838 334.484 247.838C326.316 247.838 319.373 246.624 313.819 244.196C308.183 241.769 303.037 238.289 298.381 233.918C294.542 230.358 292.337 226.716 291.683 222.993C290.948 218.866 292.419 215.871 296.176 213.929C296.829 213.605 297.483 213.525 298.136 213.686C298.79 213.848 299.361 214.253 299.688 214.738C302.547 218.947 306.713 222.912 312.104 226.635C319.128 231.652 326.643 234.08 334.484 234.08C343.959 234.08 350.821 232.381 355.068 228.82C358.499 225.987 360.296 221.86 360.296 216.519C360.296 210.53 356.212 205.674 348.043 201.952C344.368 200.333 340.937 199.2 337.833 198.472C336.853 198.229 335.22 197.824 333.014 197.258C330.727 196.691 329.012 196.206 327.868 195.882C326.643 195.558 325.009 195.073 323.049 194.425C321.089 193.778 319.128 193.131 317.25 192.321C308.265 188.922 301.894 183.905 298.218 177.43C296.094 174.112 295.032 169.823 295.032 164.644C295.032 154.771 298.626 146.759 305.896 140.608C312.512 135.024 321.497 132.192 332.851 132.192Z" fill="black"/>
<path d="M396.235 128.712H405.629C406.936 128.712 407.589 129.359 407.589 130.654V171.927C410.775 167.8 414.777 164.401 419.596 161.811C424.334 159.222 429.48 157.846 434.871 157.846C445.653 157.846 454.311 161.083 461.009 167.476C468.033 174.598 471.546 184.552 471.546 197.339V244.358C471.546 245.734 470.81 246.381 469.504 246.381H459.783C459.212 246.381 458.722 246.22 458.395 245.815C457.987 245.491 457.823 245.006 457.823 244.358V200.171C457.823 190.136 454.964 182.448 449.41 177.269C445.081 173.303 439.281 171.28 432.012 171.28C425.477 171.28 420.086 173.384 415.839 177.43C410.938 182.124 408.161 188.922 407.589 197.986V244.358C407.589 245.734 406.936 246.381 405.629 246.381H396.235C394.847 246.381 394.193 245.734 394.193 244.358V130.654C394.193 129.359 394.847 128.712 396.235 128.712Z" fill="black"/>
<path d="M559.108 159.383H568.665C569.236 159.383 569.726 159.626 570.135 159.95C570.462 160.355 570.707 160.84 570.707 161.326V245.41C570.707 246.058 570.298 246.381 569.645 246.381H569.481C566.051 246.381 563.11 245.248 560.742 242.821C558.373 240.393 557.229 237.479 557.311 234.08V233.595C554.044 237.803 549.96 241.283 545.222 243.954C540.403 246.705 535.257 248 529.866 248C519.084 248 510.508 244.763 504.055 238.127C496.785 231.167 493.191 221.213 493.191 208.426V161.326C493.191 160.031 493.845 159.383 495.233 159.383H504.953C505.525 159.383 506.015 159.626 506.342 159.95C506.669 160.274 506.914 160.759 506.914 161.326V205.594C506.914 215.71 509.691 223.317 515.327 228.496C519.574 232.624 525.374 234.647 532.725 234.647C539.014 234.647 544.569 232.219 549.388 227.282C554.534 221.779 557.148 214.253 557.148 204.622V161.326C557.148 160.759 557.311 160.274 557.719 159.95C558.046 159.626 558.536 159.383 559.108 159.383Z" fill="black"/>
<path d="M631.151 127.012C634.827 127.012 637.767 128.631 639.891 131.868C641.851 134.862 642.096 138.099 640.708 141.66C640.544 142.227 640.136 142.389 639.564 142.146C636.705 141.336 633.928 140.77 631.151 140.608C626.903 140.446 623.636 141.094 621.431 142.631C619.062 144.169 617.51 146.192 616.693 148.62C615.876 151.129 615.386 154.69 615.141 159.383H637.195C638.502 159.383 639.237 160.031 639.237 161.326V169.823C639.237 171.118 638.502 171.766 637.195 171.766H615.141V244.358C615.141 245.734 614.406 246.381 613.099 246.381H603.379C602.807 246.381 602.317 246.22 601.991 245.815C601.582 245.491 601.419 245.006 601.419 244.358V171.766H590.392C589.003 171.766 588.35 171.118 588.35 169.823V161.326C588.35 160.031 589.003 159.383 590.392 159.383H601.419C601.419 158.736 601.501 157.765 601.582 156.47C601.582 155.175 601.664 154.123 601.746 153.395C601.909 151.614 602.236 149.51 602.726 147.244C604.523 140.203 608.28 134.943 613.916 131.382C618.49 128.307 624.208 126.85 631.151 127.012Z" fill="black"/>
<path d="M722.797 159.383H732.354C732.926 159.383 733.416 159.626 733.824 159.95C734.151 160.355 734.396 160.84 734.396 161.326V245.41C734.396 246.058 733.988 246.381 733.334 246.381H733.171C729.74 246.381 726.8 245.248 724.431 242.821C722.062 240.393 720.919 237.479 721 234.08V233.595C717.733 237.803 713.649 241.283 708.911 243.954C704.092 246.705 698.946 248 693.555 248C682.773 248 674.197 244.763 667.744 238.127C660.474 231.167 656.88 221.213 656.88 208.426V161.326C656.88 160.031 657.534 159.383 658.922 159.383H668.643C669.214 159.383 669.704 159.626 670.031 159.95C670.358 160.274 670.603 160.759 670.603 161.326V205.594C670.603 215.71 673.38 223.317 679.016 228.496C683.264 232.624 689.063 234.647 696.414 234.647C702.704 234.647 708.258 232.219 713.077 227.282C718.223 221.779 720.837 214.253 720.837 204.622V161.326C720.837 160.759 721 160.274 721.409 159.95C721.735 159.626 722.226 159.383 722.797 159.383Z" fill="black"/>
<path d="M828.82 128.712H838.54C839.847 128.712 840.5 129.359 840.5 130.654V245.41C840.5 246.058 840.173 246.381 839.52 246.381C835.926 246.381 832.904 245.168 830.453 242.74C828.003 240.312 826.778 237.317 826.778 233.757V231.652C824.981 235.456 821.713 238.855 816.976 241.93C810.931 245.977 804.234 248 796.719 248C790.511 248 784.793 246.867 779.484 244.52C774.093 242.254 769.437 239.017 765.435 234.809C761.433 230.762 758.329 225.907 756.123 220.403C753.918 214.9 752.856 209.073 752.856 202.923C752.856 196.934 753.918 191.107 756.205 185.604C758.41 180.101 761.514 175.326 765.598 171.118C773.93 162.297 784.303 157.846 796.719 157.846C804.07 157.846 810.768 159.869 816.812 163.835C820.406 166.424 823.755 169.904 826.778 174.436V130.654C826.778 129.359 827.431 128.712 828.82 128.712ZM796.719 171.442C788.387 171.442 781.281 174.517 775.482 180.587C772.704 183.5 770.499 186.818 768.947 190.703C767.314 194.587 766.578 198.715 766.578 202.923C766.578 211.582 769.519 219.028 775.482 225.178C778.177 228.092 781.363 230.439 785.12 232.057C788.796 233.676 792.635 234.485 796.719 234.485C805.05 234.485 812.157 231.41 818.119 225.178C823.837 218.947 826.778 211.501 826.778 202.923C826.778 198.715 825.961 194.587 824.49 190.703C822.938 186.818 820.815 183.5 818.119 180.587C812.075 174.517 804.969 171.442 796.719 171.442Z" fill="black"/>
<mask id="path-2-inside-1_940_216" fill="white">
<path d="M122.006 171.745C122.006 139.981 97.9421 113.992 69.0656 113.992C40.1891 113.992 16.1254 139.981 16.1254 171.745"/>
</mask>
<path d="M135.006 171.745C135.006 178.925 129.186 184.745 122.006 184.745C114.826 184.745 109.006 178.925 109.006 171.745H122.006H135.006ZM29.1254 171.745C29.1254 178.925 23.3051 184.745 16.1254 184.745C8.94568 184.745 3.12538 178.925 3.12538 171.745H16.1254H29.1254ZM122.006 171.745H109.006C109.006 146.113 89.7573 126.992 69.0656 126.992V113.992V100.992C106.127 100.992 135.006 133.849 135.006 171.745H122.006ZM69.0656 113.992V126.992C48.3739 126.992 29.1254 146.113 29.1254 171.745H16.1254H3.12538C3.12538 133.849 32.0043 100.992 69.0656 100.992V113.992Z" fill="black" mask="url(#path-2-inside-1_940_216)"/>
<path d="M253.883 73.6631V116.709C253.883 133.805 240.024 147.663 222.929 147.663H212.837C195.741 147.663 181.883 133.805 181.883 116.709V73.6631M6.5 171.745H131.631M93.1301 268V210.247L45.0026 171.745H96.9803C105.643 171.745 114.306 178.483 116.231 187.146L131.632 258.375L138.37 210.247C140.295 197.734 147.995 187.146 158.583 181.371L179.76 170.782M179.759 210.247L256.763 162.119V210.247L179.759 162.119V210.247ZM54.628 99.5535C54.628 107.528 61.0922 113.992 69.0663 113.992C77.0403 113.992 83.5045 107.528 83.5045 99.5535C83.5045 91.5795 77.0403 85.1152 69.0663 85.1152C61.0922 85.1152 54.628 91.5795 54.628 99.5535Z" stroke="black" stroke-width="13" stroke-miterlimit="10" stroke-linecap="round" stroke-linejoin="round"/>
<path d="M238.99 73.5611C253.998 85.7551 284.199 79.3768 288.702 50.1112C290.719 36.9792 281.76 12.216 252.12 20.0952C240.708 4.93089 210.567 -16.2991 181.301 20.0952C169.889 19.4699 146.877 24.5976 146.126 50.1112C145.188 82.0032 182.708 89.5071 198.654 75.9062C200.471 76.3173 202.216 76.7117 203.906 77.0738C207.784 78.4489 212.24 79.3596 217.414 79.6581C222.2 79.9342 226.745 78.918 230.958 77.0744C233.506 76.229 236.162 75.0783 238.99 73.5611Z" fill="#F04D23"/>
</svg>
