<svg width="289" height="275" viewBox="0 0 289 275" fill="none" xmlns="http://www.w3.org/2000/svg">
<mask id="path-1-inside-1_940_192" fill="white">
<path d="M122.006 171.745C122.006 139.981 97.9421 113.992 69.0656 113.992C40.1891 113.992 16.1254 139.981 16.1254 171.745"/>
</mask>
<path d="M135.006 171.745C135.006 178.925 129.186 184.745 122.006 184.745C114.826 184.745 109.006 178.925 109.006 171.745H122.006H135.006ZM29.1254 171.745C29.1254 178.925 23.3051 184.745 16.1254 184.745C8.94568 184.745 3.12538 178.925 3.12538 171.745H16.1254H29.1254ZM122.006 171.745H109.006C109.006 146.113 89.7573 126.992 69.0656 126.992V113.992V100.992C106.127 100.992 135.006 133.849 135.006 171.745H122.006ZM69.0656 113.992V126.992C48.3739 126.992 29.1254 146.113 29.1254 171.745H16.1254H3.12538C3.12538 133.849 32.0043 100.992 69.0656 100.992V113.992Z" fill="black" mask="url(#path-1-inside-1_940_192)"/>
<path d="M253.883 73.6631V116.709C253.883 133.805 240.024 147.663 222.929 147.663H212.837C195.741 147.663 181.883 133.805 181.883 116.709V73.6631M6.5 171.745H131.631M93.1301 268V210.247L45.0026 171.745H96.9803C105.643 171.745 114.306 178.483 116.231 187.146L131.632 258.375L138.37 210.247C140.295 197.734 147.995 187.146 158.583 181.371L179.76 170.782M179.759 210.247L256.763 162.119V210.247L179.759 162.119V210.247ZM54.628 99.5535C54.628 107.528 61.0922 113.992 69.0663 113.992C77.0403 113.992 83.5045 107.528 83.5045 99.5535C83.5045 91.5795 77.0403 85.1152 69.0663 85.1152C61.0922 85.1152 54.628 91.5795 54.628 99.5535Z" stroke="black" stroke-width="13" stroke-miterlimit="10" stroke-linecap="round" stroke-linejoin="round"/>
<path d="M238.99 73.5611C253.998 85.7551 284.199 79.3768 288.702 50.1112C290.719 36.9792 281.76 12.216 252.12 20.0952C240.708 4.93089 210.567 -16.2991 181.301 20.0952C169.889 19.4699 146.877 24.5976 146.126 50.1112C145.188 82.0032 182.708 89.5071 198.654 75.9062C200.471 76.3173 202.216 76.7117 203.906 77.0738C207.784 78.4489 212.24 79.3596 217.414 79.6581C222.2 79.9342 226.745 78.918 230.958 77.0744C233.506 76.229 236.162 75.0783 238.99 73.5611Z" fill="#F04D23"/>
</svg>
