<svg width="289" height="275" viewBox="0 0 289 275" fill="none" xmlns="http://www.w3.org/2000/svg">
<path d="M253.881 73.6631V116.709C253.881 133.805 240.022 147.663 222.927 147.663H212.835C195.739 147.663 181.881 133.805 181.881 116.709V73.6631" stroke="white" stroke-width="13" stroke-miterlimit="10" stroke-linecap="round" stroke-linejoin="round"/>
<path d="M238.988 73.5611C253.996 85.7551 284.197 79.3768 288.7 50.1112C290.717 36.9792 281.758 12.216 252.118 20.0952C240.706 4.93089 210.565 -16.2991 181.299 20.0952C169.887 19.4699 146.875 24.5976 146.124 50.1112C145.186 82.0032 182.706 89.5071 198.652 75.9062C200.469 76.3173 202.215 76.7117 203.904 77.0738C207.782 78.4489 212.238 79.3596 217.412 79.6581C222.198 79.9342 226.743 78.918 230.956 77.0744C233.504 76.229 236.16 75.0783 238.988 73.5611Z" fill="#F04D23"/>
<path d="M6.49939 171.745H131.631" stroke="white" stroke-width="13" stroke-miterlimit="10" stroke-linecap="round" stroke-linejoin="round"/>
<mask id="path-4-inside-1_940_207" fill="white">
<path d="M122.006 171.745C122.006 139.981 97.9421 113.992 69.0656 113.992C40.1891 113.992 16.1254 139.981 16.1254 171.745"/>
</mask>
<path d="M135.006 171.745C135.006 178.925 129.186 184.745 122.006 184.745C114.826 184.745 109.006 178.925 109.006 171.745H122.006H135.006ZM29.1254 171.745C29.1254 178.925 23.3051 184.745 16.1254 184.745C8.94568 184.745 3.12538 178.925 3.12538 171.745H16.1254H29.1254ZM122.006 171.745H109.006C109.006 146.113 89.7573 126.992 69.0656 126.992V113.992V100.992C106.127 100.992 135.006 133.849 135.006 171.745H122.006ZM69.0656 113.992V126.992C48.3739 126.992 29.1254 146.113 29.1254 171.745H16.1254H3.12538C3.12538 133.849 32.0043 100.992 69.0656 100.992V113.992Z" fill="white" mask="url(#path-4-inside-1_940_207)"/>
<path d="M179.758 210.247L256.762 162.119V210.247L179.758 162.119V210.247ZM179.758 210.247L256.762 162.119" stroke="white" stroke-width="13" stroke-miterlimit="10" stroke-linecap="round" stroke-linejoin="round"/>
<path d="M93.1283 268V210.247L45.0008 171.745H96.9785C105.641 171.745 114.304 178.483 116.23 187.146L131.63 258.374L138.368 210.247C140.293 197.734 147.994 187.146 158.582 181.37L179.758 170.782" stroke="white" stroke-width="13" stroke-miterlimit="10" stroke-linecap="round" stroke-linejoin="round"/>
<path d="M69.0657 113.992C61.0916 113.992 54.6274 107.528 54.6274 99.5535C54.6274 91.5795 61.0916 85.1152 69.0657 85.1152C77.0397 85.1152 83.5039 91.5795 83.5039 99.5535C83.5039 107.528 77.0397 113.992 69.0657 113.992Z" stroke="white" stroke-width="13" stroke-miterlimit="10" stroke-linecap="round" stroke-linejoin="round"/>
</svg>
